HIERARCHY
ROOT Hips
{
	OFFSET	0.00	0.00	0.00
	CHANNELS 6 Xposition Yposition Zposition Zrotation Xrotation Yrotation
	JOINT Spine
	{
		OFFSET	 0.00	0.01	 0.00
		CHANNELS 3 Zrotation Xrotation Yrotation
		JOINT Spine1
		{
			OFFSET	 0.00	 2.45913012437421	 0.00
			CHANNELS 3 Zrotation Xrotation Yrotation
            JOINT Neck
            {
                OFFSET	 0.00	 2.48462964506057	 0.00
                CHANNELS 3 Zrotation Xrotation Yrotation
                JOINT Head
                {
                    OFFSET	 0.00	 0.927524780924562	 0.00
                    CHANNELS 3 Zrotation Xrotation Yrotation
                    End Site 
                    {
                        OFFSET	 0.00	 1.14999962169752	 0.00
                    }
                }
            }
			JOINT LeftShoulder
			{
				OFFSET	 0.00	 2.48462964506057	 0.00
				CHANNELS 3 Zrotation Xrotation Yrotation
				JOINT LeftUpArm
				{
					OFFSET	 0.00	 1.24881979654096	 0.00
					CHANNELS 3 Zrotation Xrotation Yrotation
					JOINT LeftForeArm
					{
						OFFSET	 0.00	2.59758046908119	 0.00
						CHANNELS 3 Zrotation Xrotation Yrotation
						JOINT LeftHand
						{
							OFFSET	 0.00	2.45542024364365	 0.00
							CHANNELS 3 Zrotation Xrotation Yrotation
							JOINT LeftHandThumb 
							{
								OFFSET	 0.00	0.00	 0.00
								CHANNELS 3 Zrotation Xrotation Yrotation
								End Site
								{
									OFFSET	 0.00	0.00	1.00000003353624
								}
							}
							JOINT L_Wrist_End 
							{
								OFFSET	 0.00	0.99999967115358	 0.00
								CHANNELS 3 Zrotation Xrotation Yrotation
								End Site 
								{
									OFFSET	 0.00	 0.00	 0.00
								}
							}
						}
					}
				}
			}
			JOINT RightShoulder
			{
				OFFSET	 0.00	 2.48462964506057	 0.00
				CHANNELS 3 Zrotation Xrotation Yrotation
				JOINT RightUpArm
				{
					OFFSET	 0.00	 1.24881979654096	 0.00
					CHANNELS 3 Zrotation Xrotation Yrotation
					JOINT RightForeArm
					{
						OFFSET	 0.00	2.59758046908119	 0.00
						CHANNELS 3 Zrotation Xrotation Yrotation
						JOINT RightHand
						{
							OFFSET	 0.00	2.45542024364365	 0.00
							CHANNELS 3 Zrotation Xrotation Yrotation
							JOINT RightHandThumb 
							{
								OFFSET	 0.00	0.00	 0.00
								CHANNELS 3 Zrotation Xrotation Yrotation
								End Site
								{
									OFFSET	 0.00	0.00	1.00000003353624
								}
							}
							JOINT R_Wrist_End 
							{
								OFFSET	 0.00	0.99999967115358	 0.00
								CHANNELS 3 Zrotation Xrotation Yrotation
								End Site 
								{
									OFFSET	 0.00	 0.00	 0.00
								}
							}
						}
					}
				}
			}
		}
	}
	JOINT LeftUpLeg
	{
		OFFSET	 1.2719394002717	 0.00	 0.00
		CHANNELS 3 Zrotation Xrotation Yrotation
		JOINT LeftLowLeg
		{
			OFFSET	 0.00	-4.3429100912261	 0.00
			CHANNELS 3 Zrotation Xrotation Yrotation
			JOINT LeftFoot
			{
				OFFSET	 0.00	-4.48767017425826	 0.00
				CHANNELS 3 Zrotation Xrotation Yrotation
				JOINT LeftToeBase
                {
                    OFFSET	 0.00	0.00	 1.51507020887566
                    CHANNELS 3 Zrotation Xrotation Yrotation
                    End Site 
                    {
                        OFFSET	 0.00	0.00	 0.75000010571191
                    }
                }
			}
		}
	}
	JOINT RightUpLeg
	{
		OFFSET	 -1.2719393604653	 0.00	 0.00
		CHANNELS 3 Zrotation Xrotation Yrotation
		JOINT RightLowLeg
		{
			OFFSET	 0.00	-4.3429100912261	 0.00
			CHANNELS 3 Zrotation Xrotation Yrotation
			JOINT RightFoot
			{
				OFFSET	 0.00	-4.48767017425826	 0.00
				CHANNELS 3 Zrotation Xrotation Yrotation
				JOINT RightToeBase
                {
                    OFFSET	 0.00	0.00	 1.51507020887566
                    CHANNELS 3 Zrotation Xrotation Yrotation
                    End Site 
                    {
                        OFFSET	 0.00	0.00	 0.749999965609858
                    }
                }   
			}
		}
	}
}
MOTION 
Frames:	11 
Frame Time: 0.02 
 1.80072998046875 5.167689819335937 9.820980224609375 -144.928 84.2205 146.879 2.24328 -6.85977 -1.84093 0.80574 5.4171 -2.15455 -1.75509 38.6969 6.14643 11.9303 -47.9126 11.1318 -92.10977 -14.0949 -3.46085 -10.9076 0.904295 -32.5607 0.0 20.8538 0.0 27.228 -9.93079 27.8529 0.0 0.0 0.0 0.0 0.0 0.0 98.74974 -10.7505 0.313809 9.46868 -0.852304 36.4209 0.0 19.9036 0.0 -18.0626 -2.95106 -25.8032 0.0 0.0 0.0 0.0 0.0 0.0 4.52924 -5.01111 2.35039 0.0 8.7509 0.0 -11.4897 6.29652 -1.43158 0.0 -38.235397 0.0 3.63411 -3.35974 5.9172 0.0 7.81702 0.0 8.03168 9.76756 -7.02294 0.0 -28.547401 0.0 
  1.8000900268554687 5.1677099609375 9.820819702148437 -145.001 84.2119 146.945 2.31331 -6.81208 -1.78968 0.687449 5.31305 -2.11627 -1.62278 38.8168 5.95052 11.9224 -47.8884 11.1373 -92.02518 -14.0314 -3.41885 -10.9349 0.878101 -32.6849 0.0 20.9239 0.0 27.1699 -9.95423 27.8106 0.0 0.0 0.0 0.0 0.0 0.0 98.77932 -10.8637 0.271347 9.51773 -0.875073 36.5591 0.0 19.9546 0.0 -18.0372 -2.90354 -25.8581 0.0 0.0 0.0 0.0 0.0 0.0 4.53157 -5.02175 2.35257 0.0 8.75449 0.0 -11.4988 6.2861795 -1.42823 0.0 -38.2159 0.0 3.63864 -3.38079 5.94952 0.0 7.83587 0.0 8.04727 9.75346 -7.03948 0.0 -28.5487 0.0 
  1.799530029296875 5.168090209960938 9.820679931640624 -145.046 84.2018 146.977 2.25502 -6.85947 -1.84155 0.826957 5.4255 -2.15732 -1.73703 38.8118 6.04072 11.8068 -47.8886 11.009 -92.10004 -14.1363 -3.51079 -10.9572 0.870667 -32.753 0.0 20.9699 0.0 27.1504 -9.98291 27.823 0.0 0.0 0.0 0.0 0.0 0.0 98.64535 -10.7908 0.304947 9.65368 -0.93145 36.7752 0.0 20.0243 0.0 -17.9189 -2.70539 -25.8909 0.0 0.0 0.0 0.0 0.0 0.0 4.53616 -5.03978 2.35278 0.0 8.76894 0.0 -11.5064 6.27689 -1.41425 0.0 -38.232597 0.0 3.64486 -3.40854 5.94398 0.0 7.86219 0.0 8.03326 9.754419 -7.02357 0.0 -28.5753 0.0 
  1.799340057373047 5.168070068359375 9.820549926757813 -145.059 84.2103 146.973 2.33796 -6.79768 -1.7853 0.681341 5.33787 -2.11693 -1.5773 38.8823 5.8207 11.8212 -47.8495 11.0253 -92.02266 -14.0833 -3.44539 -10.9276 0.850177 -32.6496 0.0 20.9865 0.0 27.1669 -9.98362 27.8679 0.0 0.0 0.0 0.0 0.0 0.0 98.714676 -10.9001 0.256909 9.65018 -0.947779 36.8461 0.0 19.9776 0.0 -17.7997 -2.52185 -25.927 0.0 0.0 0.0 0.0 0.0 0.0 4.53028 -5.03393 2.32049 0.0 8.77843 0.0 -11.5068 6.2668505 -1.37298 0.0 -38.2188 0.0 3.6407 -3.41992 5.9436 0.0 7.89365 0.0 8.04523 9.737249 -6.99669 0.0 -28.5686 0.0 
  1.7988299560546874 5.168109741210937 9.820679931640624 -145.096 84.2122 146.982 2.27281 -6.84285 -1.83941 0.82086 5.46597 -2.15915 -1.73328 38.8253 5.98622 11.7524 -47.8279 10.8844 -92.08985 -14.1577 -3.53159 -10.9123 0.779431 -32.4629 0.0 20.9697 0.0 27.2706 -9.97958 28.0426 0.0 0.0 0.0 0.0 0.0 0.0 98.64927 -10.8237 0.304678 9.65277 -0.95921 36.8112 0.0 19.9578 0.0 -17.7285 -2.45839 -25.8944 0.0 0.0 0.0 0.0 0.0 0.0 4.53129 -5.02689 2.31243 0.0 8.7775 0.0 -11.5263 6.26155 -1.35352 0.0 -38.2138 0.0 3.63982 -3.42573 5.93776 0.0 7.89522 0.0 8.02883 9.74766 -6.97025 0.0 -28.5738 0.0 
  1.7985699462890625 5.167880249023438 9.820540161132813 -145.081 84.2133 146.941 2.35124 -6.78229 -1.79126 0.694362 5.37748 -2.12583 -1.64311 38.9013 5.87606 11.8173 -47.8406 10.9233 -92.00578 -14.098 -3.4878 -10.9061 0.709142 -32.4727 0.0 20.997 0.0 27.2025 -10.0016 27.8988 0.0 0.0 0.0 0.0 0.0 0.0 98.72467 -10.9337 0.287071 9.63128 -0.944211 36.6991 0.0 19.9434 0.0 -17.7247 -2.49817 -25.8067 0.0 0.0 0.0 0.0 0.0 0.0 4.53433 -5.01489 2.32524 0.0 8.77386 0.0 -11.5199 6.24858 -1.33494 0.0 -38.206802 0.0 3.64423 -3.42243 5.97808 0.0 7.89167 0.0 8.0255 9.750179 -6.98369 0.0 -28.5904 0.0 
  1.7982200622558593 5.1675 9.820599975585937 -145.141 84.207 146.969 2.28432 -6.83884 -1.84994 0.837356 5.50323 -2.17228 -1.80975 38.8532 6.07468 11.7641 -47.8406 10.8303 -92.06765 -14.1951 -3.57436 -10.945 0.64742 -32.6424 0.0 21.0295 0.0 27.2055 -10.0072 27.9142 0.0 0.0 0.0 0.0 0.0 0.0 98.68552 -10.8057 0.336333 9.60113 -1.01063 36.6253 0.0 19.9557 0.0 -17.6448 -2.54673 -25.6549 0.0 0.0 0.0 0.0 0.0 0.0 4.53898 -5.01195 2.37525 0.0 8.7707 0.0 -11.5289 6.25196 -1.3569 0.0 -38.2089 0.0 3.64519 -3.43317 5.97133 0.0 7.89379 0.0 8.02054 9.756519 -6.9514 0.0 -28.587 0.0 
  1.7979200744628907 5.167009887695312 9.8206298828125 -145.256 84.1902 147.047 2.29099 -6.84579 -1.84884 0.844554 5.49977 -2.17225 -1.828 38.8786 6.08927 11.7511 -47.838 10.8102 -92.05619 -14.2305 -3.59171 -10.958 0.623064 -32.7283 0.0 21.0293 0.0 27.2699 -10.0384 27.8928 0.0 0.0 0.0 0.0 0.0 0.0 98.70639 -10.8293 0.296311 9.57558 -0.986269 36.5713 0.0 19.9453 0.0 -17.609 -2.54796 -25.6726 0.0 0.0 0.0 0.0 0.0 0.0 4.54157 -5.01551 2.40821 0.0 8.75871 0.0 -11.5163 6.2469597 -1.34438 0.0 -38.2091 0.0 3.64834 -3.45418 5.98779 0.0 7.89328 0.0 8.00011 9.76439 -6.94005 0.0 -28.5856 0.0 
  1.7977900695800781 5.166409912109375 9.820570068359375 -145.467 84.1654 147.22 2.35611 -6.81139 -1.8048 0.739538 5.37782 -2.13992 -1.7609 38.9776 6.00585 11.7838 -47.8439 10.8498 -91.99854 -14.192 -3.5519 -10.9107 0.586934 -32.6407 0.0 20.9906 0.0 27.2887 -10.04 27.9036 0.0 0.0 0.0 0.0 0.0 0.0 98.7522 -10.94 0.267822 9.5995 -0.948027 36.5606 0.0 19.9642 0.0 -17.6089 -2.60556 -25.7622 0.0 0.0 0.0 0.0 0.0 0.0 4.54009 -5.03028 2.41617 0.0 8.75143 0.0 -11.5293 6.23435 -1.32448 0.0 -38.2047 0.0 3.64495 -3.48914 5.95599 0.0 7.89928 0.0 7.96692 9.7694 -6.88685 0.0 -28.5966 0.0 
  1.7975599670410156 5.165659790039062 9.820590209960937 -145.649 84.1394 147.363 2.36407 -6.83358 -1.80839 0.744349 5.37024 -2.14482 -1.81848 39.0015 6.07368 11.7817 -47.8519 10.818 -91.98441 -14.2037 -3.56856 -10.9052 0.512514 -32.5737 0.0 20.9979 0.0 27.227 -10.0417 27.9188 0.0 0.0 0.0 0.0 0.0 0.0 98.75529 -10.9188 0.302614 9.63523 -0.973218 36.5526 0.0 19.9646 0.0 -17.6248 -2.59272 -25.7442 0.0 0.0 0.0 0.0 0.0 0.0 4.54312 -5.04324 2.46286 0.0 8.73861 0.0 -11.5208 6.2348003 -1.32743 0.0 -38.2128 0.0 3.6476 -3.53233 5.98316 0.0 7.92165 0.0 7.96323 9.76826 -6.87441 0.0 -28.6008 0.0 
  1.797469940185547 5.164840087890625 9.820650024414062 -145.704 84.1366 147.386 2.36362 -6.83695 -1.80801 0.757684 5.37119 -2.14418 -1.87027 39.0068 6.13261 11.7794 -47.8523 10.7776 -91.98416 -14.2319 -3.5812 -10.9123 0.509294 -32.6882 0.0 20.989 0.0 27.1757 -10.0138 27.9208 0.0 0.0 0.0 0.0 0.0 0.0 98.76289 -10.913 0.310125 9.6368 -0.97287 36.4723 0.0 19.9053 0.0 -17.6672 -2.46076 -25.5834 0.0 0.0 0.0 0.0 0.0 0.0 4.54375 -5.03059 2.47475 0.0 8.72936 0.0 -11.5426 6.2324896 -1.3242 0.0 -38.185898 0.0 3.647 -3.54085 6.01341 0.0 7.92992 0.0 7.96582 9.77249 -6.8698 0.0 -28.6097 0.0 
